<svg width="191" height="33" viewBox="0 0 191 33" fill="none" xmlns="http://www.w3.org/2000/svg">
<path d="M57.9014 19.5719V25.7811H41.9204V24.1105H42.2321C42.7799 24.1105 43.2333 24.0455 43.5922 23.9156C43.97 23.7856 44.1589 23.5165 44.1589 23.1081V8.68502C44.1589 8.27665 43.97 8.00749 43.5922 7.87755C43.2333 7.74762 42.7799 7.68265 42.2321 7.68265H41.9204V6.01202H57.1081V11.5251H55.0113L54.7846 9.18621C54.7468 8.85209 54.6051 8.60149 54.3595 8.43443C54.1329 8.2488 53.7928 8.12815 53.3395 8.07246C52.8861 7.99821 52.3194 7.96109 51.6394 7.96109H48.6642V23.832H52.1211C52.6878 23.832 53.1789 23.8135 53.5945 23.7763C54.0101 23.7392 54.3501 23.6742 54.6146 23.5814C54.8979 23.4886 55.1057 23.368 55.2379 23.2195C55.3702 23.0524 55.4457 22.8482 55.4646 22.6069L55.7763 19.5719H57.9014ZM47.8708 14.8106C48.6264 14.755 49.3726 14.7178 50.1093 14.6993C50.846 14.6621 51.5827 14.625 52.3194 14.5879C53.0561 14.5508 53.7834 14.5136 54.5012 14.4765V16.8432C53.7834 16.8061 53.0561 16.769 52.3194 16.7319C51.5827 16.6947 50.846 16.6576 50.1093 16.6205C49.3726 16.5834 48.6264 16.5462 47.8708 16.5091V14.8106ZM72.7661 13.6969C72.7661 13.5855 72.6622 13.4834 72.4544 13.3906C72.2655 13.2978 72.0294 13.2328 71.746 13.1957C71.4626 13.14 71.1604 13.1122 70.8393 13.1122H70.7826V11.5529H76.4213V13.1122H76.393C76.1474 13.1122 75.9113 13.1493 75.6846 13.2236C75.4768 13.2792 75.2785 13.3906 75.0896 13.5577C74.9195 13.7247 74.7779 13.9661 74.6645 14.2816L70.4426 25.7811H66.249L61.8854 14.0589C61.8098 13.799 61.687 13.6041 61.517 13.4741C61.3659 13.3442 61.177 13.2514 60.9503 13.1957C60.7425 13.14 60.4875 13.1122 60.1853 13.1122H60.1286V11.5529H68.0908V13.1122H68.0341C67.713 13.1122 67.3918 13.1215 67.0707 13.14C66.7496 13.1586 66.4851 13.1864 66.2773 13.2236C66.0695 13.2421 65.9656 13.2885 65.9656 13.3628L69.7342 23.8599L69.2242 23.4701L72.7661 13.6969ZM82.2132 18.7366C82.2132 19.5905 82.2982 20.3516 82.4682 21.0198C82.6571 21.6695 82.931 22.2264 83.29 22.6904C83.6489 23.1359 84.0833 23.4793 84.5934 23.7206C85.1223 23.9434 85.7079 24.0548 86.3502 24.0548C87.068 24.0548 87.6819 23.9156 88.1919 23.6371C88.702 23.3587 89.1364 23.0153 89.4954 22.6069C89.8732 22.1985 90.1848 21.7809 90.4304 21.3539L92.0455 22.5791C91.6866 23.2473 91.2238 23.8506 90.6571 24.3889C90.0904 24.9086 89.4104 25.317 88.617 25.614C87.8236 25.911 86.8885 26.0595 85.8118 26.0595C84.2439 26.0595 82.8649 25.7625 81.6749 25.1685C80.4848 24.5745 79.5592 23.7299 78.898 22.6347C78.2369 21.521 77.9063 20.2123 77.9063 18.7088C77.9063 17.2238 78.2274 15.9244 78.8697 14.8106C79.5119 13.6969 80.3903 12.8337 81.5048 12.2212C82.6383 11.5901 83.9039 11.2745 85.3018 11.2745C86.4352 11.2745 87.4269 11.4508 88.277 11.8035C89.1459 12.1376 89.8732 12.6388 90.4588 13.3071C91.0443 13.9753 91.4883 14.8199 91.7905 15.8409C92.1116 16.8618 92.2722 18.0498 92.2722 19.4049H81.6182V17.5672H88.8437L88.1353 18.319C88.1164 17.3908 88.0503 16.6019 87.9369 15.9522C87.8236 15.3026 87.6536 14.7828 87.4269 14.393C87.2191 13.9846 86.9357 13.6876 86.5768 13.502C86.2368 13.3164 85.8307 13.2236 85.3584 13.2236C84.9051 13.2236 84.4895 13.3442 84.1117 13.5855C83.7339 13.8083 83.4033 14.1517 83.1199 14.6157C82.8366 15.0612 82.6099 15.6274 82.4399 16.3142C82.2888 17.001 82.2132 17.8085 82.2132 18.7366ZM105.794 11.4694V15.1726C105.662 15.1169 105.501 15.0798 105.312 15.0612C105.124 15.0241 104.935 14.9963 104.746 14.9777C104.557 14.9591 104.359 14.9499 104.151 14.9499C103.697 14.9499 103.282 15.0056 102.904 15.1169C102.526 15.2097 102.186 15.3582 101.884 15.5624C101.582 15.7666 101.308 16.0451 101.062 16.3977C100.817 16.7319 100.581 17.1402 100.354 17.6229L100.326 15.9522C100.609 15.0427 100.94 14.2445 101.317 13.5577C101.695 12.8709 102.167 12.3326 102.734 11.9427C103.301 11.5344 103.981 11.3302 104.774 11.3302C105.001 11.3302 105.199 11.3487 105.369 11.3859C105.558 11.4044 105.7 11.4323 105.794 11.4694ZM94.8002 25.7811V24.2218H94.8569C95.3669 24.2218 95.7825 24.1661 96.1036 24.0548C96.4437 23.9248 96.6137 23.6835 96.6137 23.3308V14.2816C96.6137 14.0403 96.557 13.864 96.4437 13.7526C96.3303 13.6412 96.1603 13.5484 95.9336 13.4741C95.707 13.3813 95.4142 13.2978 95.0552 13.2236L94.8002 13.1679V11.5529H100.581V15.9244L100.892 15.6181V23.5814C100.892 23.7671 101.006 23.9063 101.232 23.9991C101.478 24.0919 101.752 24.1569 102.054 24.194C102.375 24.2126 102.659 24.2218 102.904 24.2218H103.216V25.7811H94.8002ZM117.812 23.2751L116.707 25.447L115.319 26.9227L109.624 14.0867C109.51 13.8268 109.378 13.6319 109.227 13.502C109.076 13.3535 108.887 13.2514 108.66 13.1957C108.452 13.14 108.188 13.1122 107.867 13.1122H107.839V11.5529H115.829V13.1122H115.772C115.451 13.1122 115.13 13.1215 114.809 13.14C114.507 13.1586 114.252 13.1864 114.044 13.2236C113.836 13.2421 113.732 13.2885 113.732 13.3628L117.812 23.2751ZM117.812 25.2799C117.265 26.505 116.726 27.5631 116.197 28.4541C115.668 29.3451 115.13 30.069 114.582 30.6259C114.053 31.1828 113.487 31.5911 112.882 31.851C112.278 32.1295 111.626 32.2687 110.927 32.2687C110.398 32.2687 109.954 32.213 109.595 32.1016C109.236 31.9902 108.953 31.8603 108.745 31.7118V28.5098C108.821 28.5283 108.981 28.584 109.227 28.6768C109.472 28.7882 109.765 28.8903 110.105 28.9831C110.464 29.0945 110.851 29.1502 111.267 29.1502C111.702 29.1502 112.117 29.0852 112.514 28.9553C112.91 28.8439 113.298 28.6304 113.676 28.3149C114.053 28.0179 114.422 27.5816 114.781 27.0062C115.158 26.4493 115.527 25.7347 115.886 24.8622L116.367 23.7763L120.674 13.7247C120.674 13.5948 120.58 13.4927 120.391 13.4185C120.221 13.3256 119.985 13.2514 119.683 13.1957C119.38 13.14 119.078 13.1122 118.776 13.1122H118.691V11.5529H124.415V13.1122H124.386C124.122 13.1122 123.876 13.1493 123.65 13.2236C123.442 13.2978 123.243 13.4277 123.054 13.6134C122.884 13.7804 122.724 14.031 122.573 14.3651L117.812 25.2799ZM132.282 5.28809V23.3308C132.282 23.6835 132.443 23.9248 132.764 24.0548C133.104 24.1661 133.529 24.2218 134.039 24.2218H134.096V25.7811H126.19V24.2218H126.219C126.747 24.2218 127.173 24.1661 127.494 24.0548C127.834 23.9248 128.004 23.6835 128.004 23.3308V8.01677C128.004 7.77546 127.947 7.59912 127.834 7.48774C127.72 7.35781 127.55 7.25571 127.324 7.18146C127.097 7.10721 126.804 7.03296 126.445 6.95871L126.162 6.90302V5.28809H132.282ZM145.976 17.2052V18.7923C145.22 18.8666 144.549 18.9779 143.964 19.1264C143.378 19.2564 142.868 19.4234 142.434 19.6276C142.018 19.8132 141.669 20.0267 141.385 20.268C141.121 20.5093 140.922 20.7878 140.79 21.1033C140.658 21.4189 140.592 21.7716 140.592 22.1614C140.592 22.5698 140.667 22.9225 140.819 23.2195C140.989 23.5165 141.225 23.7485 141.527 23.9156C141.829 24.0641 142.179 24.1383 142.575 24.1383C143.104 24.1383 143.567 24.0084 143.964 23.7485C144.379 23.4886 144.748 23.1266 145.069 22.6626C145.39 22.18 145.673 21.6138 145.919 20.9641L145.947 22.9132C145.664 23.5814 145.295 24.1476 144.842 24.6116C144.408 25.0757 143.879 25.4377 143.255 25.6976C142.632 25.9389 141.924 26.0595 141.13 26.0595C140.205 26.0595 139.392 25.9203 138.693 25.6419C138.013 25.3449 137.475 24.9179 137.078 24.3611C136.682 23.7856 136.483 23.0988 136.483 22.3006C136.483 21.521 136.682 20.8527 137.078 20.2959C137.494 19.739 138.098 19.2656 138.892 18.8758C139.685 18.4675 140.667 18.1333 141.839 17.8735C143.029 17.595 144.408 17.3723 145.976 17.2052ZM145.607 25.7811V22.9689L145.295 22.941V15.6738C145.295 15.0798 145.201 14.5972 145.012 14.2259C144.842 13.8547 144.587 13.5948 144.247 13.4463C143.907 13.2792 143.482 13.1957 142.972 13.1957C142.216 13.1957 141.584 13.3628 141.074 13.6969C140.582 14.0125 140.195 14.393 139.912 14.8385C139.798 14.6343 139.742 14.4487 139.742 14.2816C139.742 14.096 139.789 13.9289 139.883 13.7804C139.997 13.6134 140.138 13.4741 140.309 13.3628C140.497 13.2514 140.715 13.1679 140.96 13.1122V16.0358H137.447V13.0843C137.73 12.8616 138.136 12.611 138.665 12.3326C139.194 12.0541 139.855 11.8128 140.649 11.6086C141.442 11.3859 142.358 11.2745 143.397 11.2745C144.247 11.2745 145.04 11.3673 145.777 11.5529C146.514 11.72 147.156 11.9984 147.704 12.3882C148.271 12.7595 148.705 13.2514 149.007 13.864C149.329 14.458 149.489 15.1819 149.489 16.0358V23.2751C149.489 23.4793 149.555 23.6464 149.687 23.7763C149.839 23.8877 150.037 23.9712 150.282 24.0269C150.547 24.0826 150.849 24.129 151.189 24.1661H151.274V25.7811H145.607ZM153.293 25.7811V24.2218H153.35C153.69 24.2218 153.992 24.194 154.257 24.1383C154.521 24.0826 154.729 23.9898 154.88 23.8599C155.031 23.7299 155.107 23.5536 155.107 23.3308V14.2816C155.107 14.0403 155.05 13.864 154.937 13.7526C154.823 13.6412 154.653 13.5484 154.427 13.4741C154.2 13.3813 153.907 13.2978 153.548 13.2236L153.293 13.1679V11.5529H159.074V14.5879L159.385 14.6993V23.9712C159.385 24.0269 159.47 24.0733 159.64 24.1105C159.81 24.1476 160.018 24.1754 160.264 24.194C160.509 24.2126 160.727 24.2218 160.915 24.2218H161.001V25.7811H153.293ZM170.691 25.7811H162.984V24.2218H163.041C163.23 24.2218 163.447 24.2126 163.692 24.194C163.938 24.1754 164.146 24.1476 164.316 24.1105C164.505 24.0733 164.599 24.0269 164.599 23.9712V16.0358C164.599 15.4975 164.533 15.0612 164.401 14.7271C164.287 14.3744 164.098 14.1146 163.834 13.9475C163.57 13.7619 163.211 13.6691 162.757 13.6691C162.247 13.6691 161.756 13.799 161.284 14.0589C160.831 14.3002 160.405 14.6621 160.009 15.1448C159.612 15.6274 159.225 16.2307 158.847 16.9546L158.819 14.6157C159.234 13.8918 159.697 13.2885 160.207 12.8059C160.736 12.3047 161.331 11.9242 161.992 11.6643C162.653 11.4044 163.381 11.2745 164.174 11.2745C165.137 11.2745 165.969 11.4508 166.668 11.8035C167.366 12.1376 167.905 12.6574 168.283 13.3628C168.679 14.0496 168.878 14.922 168.878 15.9801V23.3308C168.878 23.5536 168.953 23.7299 169.104 23.8599C169.274 23.9898 169.482 24.0826 169.728 24.1383C169.992 24.194 170.294 24.2218 170.634 24.2218H170.691V25.7811ZM188.432 23.2751C188.432 23.6093 188.583 23.832 188.885 23.9434C189.207 24.0548 189.632 24.129 190.161 24.1661H190.246V25.7811H184.437V22.5512L184.153 22.6626V8.01677C184.153 7.77546 184.097 7.59912 183.983 7.48774C183.87 7.35781 183.691 7.25571 183.445 7.18146C183.2 7.10721 182.888 7.03296 182.51 6.95871L182.255 6.90302V5.28809H188.432V23.2751ZM179.847 11.2745C180.678 11.2745 181.405 11.3951 182.028 11.6365C182.652 11.8778 183.209 12.249 183.7 12.7502C184.21 13.2514 184.664 13.8825 185.06 14.6436L185.004 17.2887C184.607 16.4163 184.201 15.7016 183.785 15.1448C183.37 14.5693 182.916 14.1517 182.425 13.8918C181.953 13.6134 181.414 13.4741 180.81 13.4741C180.281 13.4741 179.809 13.6041 179.393 13.864C178.978 14.1053 178.628 14.458 178.345 14.922C178.08 15.3861 177.882 15.9522 177.75 16.6205C177.617 17.2702 177.551 18.0034 177.551 18.8201C177.551 19.5998 177.617 20.3051 177.75 20.9363C177.882 21.5488 178.08 22.0779 178.345 22.5234C178.609 22.9689 178.93 23.303 179.308 23.5257C179.705 23.7485 180.158 23.8599 180.668 23.8599C181.273 23.8599 181.811 23.7114 182.283 23.4144C182.775 23.0988 183.237 22.6347 183.672 22.0222C184.106 21.4096 184.55 20.6393 185.004 19.7111L185.06 22.3006C184.588 23.1359 184.097 23.832 183.587 24.3889C183.077 24.9458 182.501 25.3634 181.858 25.6419C181.235 25.9203 180.498 26.0595 179.648 26.0595C178.345 26.0595 177.202 25.7625 176.22 25.1685C175.237 24.556 174.472 23.7114 173.924 22.6347C173.396 21.5396 173.131 20.268 173.131 18.8201C173.131 17.3351 173.414 16.0265 173.981 14.8942C174.548 13.7619 175.332 12.8801 176.333 12.249C177.353 11.5993 178.524 11.2745 179.847 11.2745Z" fill="#1A1A1F"/>
<path d="M22.1985 5.15625H11.3839H10.8147L0 15.7834V26.4105H22.1985V5.15625Z" fill="#60CABF"/>
<path d="M33.5825 5.15625H22.7678H22.1986L11.384 15.7834V26.4105H33.5825V5.15625Z" fill="#2D63F3"/>
<path d="M22.1986 26.4105V5.15625L11.384 15.7834V26.4105H22.1986Z" fill="#1E44B9"/>
</svg>
